<svg width="12" height="11" fill="none" xmlns="http://www.w3.org/2000/svg"><path fill-rule="evenodd" clip-rule="evenodd" d="M8.434.171c-.292-.155-.677-.08-.861.167L6.281 2.08 4.99.338C4.806.09 4.42.015 4.129.17c-.292.156-.38.483-.197.73l1.005 1.356H2.034c-.67 0-1.214.489-1.214 1.092V4.44c0 .404.244.757.607.946v3.966c0 .905.815 1.638 1.82 1.638h6.068c1.005 0 1.82-.733 1.82-1.638V5.386c.363-.189.607-.542.607-.946V3.35c0-.603-.543-1.092-1.214-1.092H7.625L8.63.9c.184-.247.096-.574-.196-.73zm-6.4 4.27h3.64V3.348h-3.64V4.44zm4.854-1.092V4.44h3.64V3.35h-3.64zM5.674 5.532H2.641v3.821c0 .3.271.545.606.545h2.427V5.532zm1.214 4.366V5.532h3.034v3.821c0 .3-.272.545-.607.545H6.888z" fill="#000"/></svg>