<svg width="9" height="14" fill="none" xmlns="http://www.w3.org/2000/svg"><path d="M4.244.747c-.542 0-1.079.12-1.575.348a3.928 3.928 0 00-1.309.98 4.143 4.143 0 00-.82 1.448 4.276 4.276 0 00-.196 1.672c.08.98.5 1.713 1.058 2.48 1.31 1.83 2.073 4.03 2.848 6.147.75-2.077 1.5-4.217 2.765-6.032.5-.71.938-1.348 1.088-2.234.1-.59.074-1.195-.074-1.773a4.17 4.17 0 00-.783-1.575A3.948 3.948 0 005.9 1.128 3.777 3.777 0 004.244.741v.005zm0 5.319c-.247 0-.49-.077-.695-.22a1.297 1.297 0 01-.46-.588 1.364 1.364 0 01-.071-.755c.048-.254.167-.487.342-.67.175-.183.397-.308.64-.358a1.2 1.2 0 01.722.074c.229.1.424.267.561.482a1.351 1.351 0 01-.155 1.652 1.223 1.223 0 01-.884.383z" fill="#999"/></svg>