<svg width="14" height="16" fill="none" xmlns="http://www.w3.org/2000/svg"><path d="M10.209 3.371l-6.41 3.947 6.41-3.947zm-6.41 5.526l6.41 3.948-6.41-3.948z" fill="#999"/><path d="M3.8 8.897l6.409 3.948m0-9.474l-6.41 3.947 6.41-3.947z" stroke="#999" stroke-width="1.5" stroke-linecap="round" stroke-linejoin="round"/><path d="M10.006 2.582c0-.383.131-.754.371-1.042a1.447 1.447 0 011.962-.276c.303.213.523.534.617.903.095.37.06.764-.101 1.108a1.54 1.54 0 01-.77.762 1.432 1.432 0 01-1.057.038 1.52 1.52 0 01-.819-.704 1.641 1.641 0 01-.203-.79zm0 11.053c0-.278.07-.55.203-.79a1.52 1.52 0 01.819-.704c.345-.122.72-.108 1.057.039.336.147.61.418.77.762.16.344.196.737.101 1.107-.094.37-.314.69-.617.903-.303.212-.67.301-1.03.25a1.481 1.481 0 01-.932-.525 1.627 1.627 0 01-.37-1.042zM1 8.108c0-.347.11-.684.31-.96a1.5 1.5 0 01.802-.562c.319-.09.657-.067.962.066.305.132.56.367.725.667a1.643 1.643 0 010 1.579c-.165.3-.42.535-.725.667a1.432 1.432 0 01-.962.066 1.5 1.5 0 01-.801-.563A1.633 1.633 0 011 8.108z" fill="#999" stroke="#999" stroke-linecap="round" stroke-linejoin="round"/></svg>