<svg width="28" height="15" fill="none" xmlns="http://www.w3.org/2000/svg"><path d="M8.137 2.034H0v.678h8.137v-.678zm2.034 2.035H2.034v.678h8.137v-.678z" fill="#000"/><path d="M4.747.248v12.057a.247.247 0 00.155.23.26.26 0 00.096.018H8.19l.013.096c.056.44.271.844.606 1.137a1.836 1.836 0 002.42 0c.334-.293.55-.697.606-1.137l.012-.096h8.879l.013.096c.056.44.271.844.606 1.137a1.836 1.836 0 002.42 0c.334-.293.55-.697.606-1.137l.012-.096h2.49a.253.253 0 00.177-.072.248.248 0 00.074-.176V7.397a.247.247 0 00-.155-.23.25.25 0 00-.097-.018H24.84V3.81a.245.245 0 00-.072-.177.25.25 0 00-.177-.073h-6.103V.248A.248.248 0 0018.237 0H5.003a.25.25 0 00-.256.248zm16.476 12.166a1.32 1.32 0 01.823-1.224 1.339 1.339 0 011.45.288 1.323 1.323 0 01-.944 2.26 1.335 1.335 0 01-.937-.39 1.32 1.32 0 01-.388-.934h-.004zM18.484 4.07h5.855v3.337a.25.25 0 00.252.25h2.032v4.408h-2.271l-.021-.081a1.82 1.82 0 00-.645-1.012 1.837 1.837 0 00-2.275 0 1.82 1.82 0 00-.645 1.012l-.021.081h-2.257l-.004-7.995zm-9.797 8.344a1.32 1.32 0 01.822-1.224 1.339 1.339 0 011.45.286 1.323 1.323 0 01.29 1.443 1.326 1.326 0 01-1.228.82 1.337 1.337 0 01-.94-.39 1.323 1.323 0 01-.39-.935h-.004zM5.247.499h12.736v11.556H11.82l-.021-.082a1.819 1.819 0 00-.647-.998 1.835 1.835 0 00-2.905.998l-.021.082H5.252L5.248.499z" fill="#000"/></svg>