<svg width="23" height="18" fill="none" xmlns="http://www.w3.org/2000/svg"><g clip-path="url(#clip0_1807_847)"><path d="M1.407 5.34h11.392M1.407 2.493h11.392v9.968a1.424 1.424 0 01-1.424 1.424H2.83a1.424 1.424 0 01-1.424-1.424V2.493zm8.545-.712v1.424M4.256 1.781v1.424" stroke="#000" stroke-width=".712" stroke-linecap="round" stroke-linejoin="round"/><path d="M4.1 10.59a.348.348 0 01.142-.278c1.424-1.04 1.922-1.51 1.922-2.037a.612.612 0 00-.712-.576 1.34 1.34 0 00-.84.285.27.27 0 01-.178.064.292.292 0 01-.292-.3.285.285 0 01.107-.22 1.858 1.858 0 011.189-.413 1.225 1.225 0 011.367 1.16c0 .712-.634 1.318-1.645 2.08h1.424a.291.291 0 01.31.41.292.292 0 01-.31.166H4.448a.342.342 0 01-.349-.341zm6.087-.806a.3.3 0 01-.292.3h-.249v.548a.335.335 0 11-.662 0v-.549H7.56a.377.377 0 01-.377-.377.363.363 0 01.064-.192l1.367-2.136a.577.577 0 011.06.313v1.787h.243a.292.292 0 01.27.306zM8.991 9.5V7.762L7.845 9.5H8.99z" fill="#000"/></g><path d="M14.11 11.295v5.625l2.402-1.602 2.394 1.602v-5.598" fill="#fff"/><path d="M14.11 11.295v5.625l2.402-1.602 2.394 1.602v-5.598" stroke="#000" stroke-width=".712" stroke-linecap="round" stroke-linejoin="round"/><path d="M15.319 1.424a1.602 1.602 0 012.385 0l.107.116a1.584 1.584 0 001.281.534h.16a1.602 1.602 0 011.683 1.69v.16a1.583 1.583 0 00.534 1.274l.115.115a1.602 1.602 0 010 2.386l-.115.106a1.584 1.584 0 00-.534 1.273v.17a1.593 1.593 0 01-1.682 1.681h-.17a1.585 1.585 0 00-1.281.534l-.107.116a1.602 1.602 0 01-2.385 0l-.107-.116a1.61 1.61 0 00-1.282-.534h-.178a1.6 1.6 0 01-1.69-1.682v-.169a1.6 1.6 0 00-.526-1.273l-.124-.106a1.602 1.602 0 010-2.386l.124-.115a1.6 1.6 0 00.525-1.273v-.16a1.611 1.611 0 011.691-1.691h.16a1.61 1.61 0 001.282-.534l.134-.116z" fill="#fff" stroke="#000" stroke-width=".712"/><path d="M18.105 5.697L15.71 8.091l-.8-.8" stroke="#000" stroke-width=".712" stroke-linecap="round" stroke-linejoin="round"/><defs><clipPath id="clip0_1807_847"><path fill="#fff" transform="translate(.696 1.426)" d="M0 0h12.816v13.172H0z"/></clipPath></defs></svg>