<svg width="31" height="22" fill="none" xmlns="http://www.w3.org/2000/svg"><path d="M7.567 21.12c-2.465 0-4.303-.79-5.514-2.368C.887 17.173.305 15.339.305 13.248c0-1.92.426-3.755 1.277-5.504a16.706 16.706 0 013.43-4.672C6.447 1.707 7.993.682 9.652 0l4.64 3.264a17.995 17.995 0 00-4.976 2.944C7.88 7.403 6.872 8.683 6.29 10.048l.336.192c.269-.17.56-.299.874-.384.359-.085.83-.128 1.412-.128 1.21 0 2.399.427 3.564 1.28 1.21.853 1.816 2.176 1.816 3.968 0 2.005-.695 3.541-2.085 4.608-1.345 1.024-2.891 1.536-4.64 1.536zm16.476 0c-2.466 0-4.304-.79-5.514-2.368-1.166-1.579-1.749-3.413-1.749-5.504 0-1.92.426-3.755 1.278-5.504a16.705 16.705 0 013.43-4.672c1.434-1.365 2.98-2.39 4.64-3.072l4.64 3.264a17.994 17.994 0 00-4.977 2.944c-1.434 1.195-2.443 2.475-3.026 3.84l.336.192c.27-.17.56-.299.874-.384.36-.085.83-.128 1.413-.128 1.21 0 2.398.427 3.564 1.28 1.21.853 1.815 2.176 1.815 3.968 0 2.005-.695 3.541-2.084 4.608-1.345 1.024-2.892 1.536-4.64 1.536z" fill="#000"/></svg>